<svg xmlns="http://www.w3.org/2000/svg"  viewBox="0 0 50 50" width="50px" height="50px"><path d="M 42.980469 3 A 1.0001 1.0001 0 0 0 42.839844 3.0136719 L 5.8398438 9.0136719 A 1.0001 1.0001 0 0 0 5.0292969 10.242188 L 7.71875 21 L 3 21 A 1.0001 1.0001 0 0 0 2.0449219 22.296875 L 8.484375 43.03125 A 1.0001 1.0001 0 0 0 9.6015625 43.720703 L 25 41.177734 L 25 46 A 1.0001 1.0001 0 0 0 26.388672 46.921875 L 45.388672 38.921875 A 1.0001 1.0001 0 0 0 45.992188 38.125 L 47.992188 22.125 A 1.0001 1.0001 0 0 0 47 21 L 42.117188 21 L 43.994141 4.1113281 A 1.0001 1.0001 0 0 0 42.980469 3 z M 41.861328 5.1972656 L 40.005859 21.888672 A 1.0001 1.0001 0 0 0 41 23 L 45.867188 23 L 44.080078 37.302734 L 27 44.494141 L 27 40 A 1.0001 1.0001 0 0 0 25.837891 39.013672 L 10.134766 41.605469 L 4.3574219 23 L 9 23 A 1.0001 1.0001 0 0 0 9.9707031 21.757812 L 7.234375 10.8125 L 41.861328 5.1972656 z M 34.603516 15.183594 C 34.528516 15.183594 34.463672 15.182406 34.388672 15.191406 L 29.853516 15.568359 L 29.853516 23.896484 L 35.105469 23.896484 C 37.349469 22.892484 37.323453 21.074594 36.439453 20.183594 C 36.094453 19.836594 35.609891 19.619141 35.087891 19.619141 C 35.600891 19.600141 36.076109 19.374156 36.412109 19.035156 C 36.775109 18.669156 37 18.162422 37 17.607422 C 37 16.263422 35.918516 15.183594 34.603516 15.183594 z M 28.986328 15.572266 L 23.324219 15.980469 L 23.324219 23.621094 L 28.988281 23.892578 L 28.988281 21.849609 L 25.386719 21.794922 L 25.386719 20.853516 L 28.570312 20.853516 L 28.570312 18.646484 L 25.441406 18.755859 L 25.441406 17.849609 L 28.986328 17.652344 L 28.986328 15.572266 z M 22.779297 16.019531 L 20.685547 16.169922 L 19.525391 20.654297 L 18.4375 16.328125 L 16.507812 16.466797 L 15.490234 20.617188 L 14.498047 16.609375 L 12.488281 16.783203 L 14.189453 23.404297 L 16.414062 23.404297 L 17.427734 19.876953 L 18.458984 23.404297 L 20.720703 23.404297 L 22.779297 16.019531 z M 33.566406 17.240234 L 33.603516 17.240234 C 33.967516 17.240234 34.265625 17.542203 34.265625 17.908203 C 34.265625 18.284203 33.96675 18.585938 33.59375 18.585938 L 32.082031 18.585938 L 32.082031 17.306641 L 32.083984 17.306641 L 33.566406 17.240234 z M 33.810547 20.736328 L 33.828125 20.736328 C 34.182125 20.736328 34.482422 21.027531 34.482422 21.394531 C 34.481422 21.752531 34.192125 22.044922 33.828125 22.044922 L 32.083984 22.044922 L 32.083984 20.802734 L 33.810547 20.736328 z M 9.5429688 25.078125 L 9.5429688 27.310547 L 12.148438 27.310547 L 12.148438 34 L 14.626953 33.863281 L 14.626953 27.451172 L 16.941406 27.451172 L 16.941406 25.220703 L 9.5429688 25.078125 z M 21.394531 25.164062 C 19.025531 25.164062 17.099609 27.072641 17.099609 29.431641 C 17.099609 31.781641 19.026531 33.699219 21.394531 33.699219 C 23.762531 33.699219 25.681641 31.781641 25.681641 29.431641 C 25.681641 27.072641 23.763531 25.164062 21.394531 25.164062 z M 30.117188 25.380859 C 28.040187 25.380859 26.357422 27.11925 26.357422 29.28125 C 26.357422 31.43325 28.039187 33.183594 30.117188 33.183594 C 32.185187 33.183594 33.867188 31.43425 33.867188 29.28125 C 33.867188 27.11925 32.185187 25.380859 30.117188 25.380859 z M 34.513672 25.580078 L 34.513672 32.701172 L 36.744141 32.636719 L 36.744141 29.140625 L 39.009766 32.509766 L 40.835938 32.400391 L 41 25.673828 L 38.849609 25.673828 L 38.849609 29.140625 L 36.558594 25.589844 L 34.513672 25.580078 z M 21.507812 27.419922 C 22.522813 27.419922 23.341797 28.341938 23.341797 29.460938 C 23.341797 30.588938 22.522812 31.509766 21.507812 31.509766 C 20.492812 31.509766 19.675781 30.588938 19.675781 29.460938 C 19.675781 28.342938 20.492812 27.419922 21.507812 27.419922 z M 30.164062 27.476562 C 31.066063 27.476562 31.800781 28.303125 31.800781 29.328125 C 31.800781 30.343125 31.066062 31.171875 30.164062 31.171875 C 29.262062 31.171875 28.529297 30.343125 28.529297 29.328125 C 28.529297 28.304125 29.262062 27.476562 30.164062 27.476562 z"/></svg>